<svg preserveAspectRatio="none" width="100%" height="100%" overflow="visible" style="display: block;" viewBox="0 0 24 19.4487" fill="none" xmlns="http://www.w3.org/2000/svg">
<g id="Group">
<path id="Vector" opacity="0" d="M24 0H0V19.4487H24V0Z" fill="var(--fill-0, black)"/>
<path id="Vector_2" d="M9.74359 19.4359C10.3718 19.4359 10.8718 18.9744 10.8718 18.3333C10.8718 18.0256 10.7564 17.7179 10.5513 17.5257L7.67951 14.6026L2.33333 9.71794L7.67951 4.83334L10.5513 1.91026C10.7564 1.70513 10.8718 1.41025 10.8718 1.10256C10.8718 0.461538 10.3718 0 9.74359 0C9.4359 0 9.16666 0.102564 8.88462 0.384615L0.397436 8.85897C0.141025 9.10255 0 9.39744 0 9.71794C0 10.0385 0.141025 10.3333 0.397436 10.5769L8.91028 19.0769C9.16666 19.3205 9.4359 19.4359 9.74359 19.4359ZM6.46154 10.859H22.6795C23.3462 10.859 23.8077 10.3846 23.8077 9.71794C23.8077 9.0513 23.3462 8.57693 22.6795 8.57693H6.46154L2.33333 8.83331C1.80769 8.83331 1.44872 9.19232 1.44872 9.71794C1.44872 10.2436 1.80769 10.6026 2.33333 10.6026L6.46154 10.859Z" fill="var(--fill-0, #222222)"/>
</g>
</svg>
