<svg width="40" height="40" viewBox="0 0 40 40" fill="none" xmlns="http://www.w3.org/2000/svg">
<rect width="40" height="40" rx="20" fill="#222222" fill-opacity="0.32"/>
<path d="M27.9813 20.33C27.9831 20.3024 27.984 20.2738 27.9848 20.2453L28 19.8912L27.9866 19.8876C27.9608 18.0163 27.294 16.2431 26.0915 14.8266L26.1057 14.8115L25.7269 14.4217C24.207 12.8598 22.1719 12 19.9951 12C18.8773 12 17.8022 12.2257 16.7922 12.669L16.7842 12.6627L16.4562 12.8251C16.0221 13.04 15.612 13.2916 15.2296 13.5761C14.9747 13.7661 14.7322 13.9694 14.5022 14.1871C14.4166 14.2682 14.3337 14.3512 14.2517 14.4359C13.1276 15.5982 12.3646 17.0886 12.1016 18.7191L12.0169 19.2472L12.0357 19.2516C12.0125 19.4996 12 19.7502 12 20C12 22.1202 12.8451 24.153 14.3328 25.647L14.3266 25.6586L14.66 25.9574C16.1281 27.2739 18.0224 28 19.9942 28C20.1342 28 20.2732 27.9964 20.4114 27.9893C21.3812 27.9402 22.3199 27.7172 23.206 27.3275C23.206 27.3275 23.2069 27.3275 23.2078 27.3275L23.5545 27.1749V27.1642C26.1352 25.8753 27.8583 23.2414 27.9804 20.3523C27.9804 20.3514 27.9804 20.3505 27.9804 20.3496C27.9804 20.3488 27.9804 20.347 27.9804 20.3461V20.3336L27.9813 20.33ZM26.81 20.7671C26.8064 20.7956 26.8028 20.8242 26.7993 20.8527C26.793 20.9018 26.7868 20.9508 26.7797 20.999C26.7752 21.0302 26.7698 21.0614 26.7645 21.0926C26.7574 21.1381 26.7493 21.1836 26.7413 21.2291C26.7351 21.2621 26.7288 21.2942 26.7217 21.3272C26.7128 21.3709 26.7048 21.4146 26.695 21.4575C26.6878 21.4905 26.6798 21.5235 26.6718 21.5565C26.662 21.5993 26.6513 21.6412 26.6406 21.6831C26.6317 21.7161 26.6228 21.75 26.6138 21.783C26.6023 21.8241 26.5907 21.866 26.5791 21.907C26.5693 21.94 26.5595 21.9739 26.5488 22.0069C26.5363 22.0479 26.5229 22.0881 26.5104 22.1291C26.4997 22.1621 26.4882 22.1951 26.4766 22.2281C26.4623 22.2682 26.448 22.3084 26.4338 22.3485C26.4222 22.3806 26.4097 22.4136 26.3972 22.4458C26.3821 22.4859 26.366 22.5251 26.35 22.5653C26.3375 22.5974 26.3241 22.6286 26.3108 22.6607C26.2938 22.7 26.2769 22.7392 26.2591 22.7785C26.2448 22.8097 26.2314 22.8409 26.2172 22.8712C26.1985 22.9105 26.1797 22.9497 26.161 22.989C26.1467 23.0193 26.1316 23.0487 26.1164 23.079C26.0968 23.1183 26.0754 23.1575 26.0549 23.1968C26.0398 23.2253 26.0246 23.2539 26.0095 23.2824C25.9872 23.3226 25.964 23.3627 25.9408 23.4028C25.9257 23.4296 25.9105 23.4563 25.8954 23.4822C25.8695 23.5259 25.8428 23.5696 25.816 23.6124C25.8027 23.6338 25.7893 23.6561 25.7759 23.6784C25.7385 23.7373 25.7001 23.7953 25.6609 23.8533C25.6574 23.8595 25.6529 23.8649 25.6493 23.8711C25.6057 23.9344 25.5611 23.9969 25.5156 24.0593C25.5023 24.0771 25.488 24.095 25.4746 24.1128C25.4425 24.1565 25.4095 24.1994 25.3766 24.2422C25.3587 24.2654 25.34 24.2876 25.3213 24.3108C25.2919 24.3474 25.2616 24.3849 25.2313 24.4206C25.2108 24.4446 25.1894 24.4687 25.1689 24.4928C25.1394 24.5267 25.11 24.5606 25.0797 24.5945C25.0574 24.6195 25.0352 24.6435 25.0129 24.6676C24.9835 24.6997 24.9531 24.7319 24.9228 24.764C24.8997 24.788 24.8756 24.8121 24.8515 24.8362C24.8212 24.8665 24.7909 24.8978 24.7597 24.9281C24.7347 24.9522 24.7107 24.9754 24.6857 24.9994C24.6545 25.0289 24.6233 25.0583 24.5921 25.0869C24.5663 25.11 24.5404 25.1332 24.5146 25.1564C24.4825 25.185 24.4504 25.2126 24.4174 25.2403C24.3907 25.2626 24.3648 25.2849 24.3372 25.3072C24.3042 25.3339 24.2712 25.3616 24.2373 25.3874C24.2106 25.4088 24.183 25.4303 24.1553 25.4517C24.1215 25.4775 24.0867 25.5034 24.0528 25.5293C24.0252 25.5498 23.9967 25.5703 23.969 25.5908C23.9343 25.6158 23.8986 25.6408 23.8629 25.6648C23.8344 25.6845 23.8068 25.7041 23.7783 25.7228C23.7417 25.7469 23.7043 25.771 23.6677 25.7942C23.6392 25.812 23.6107 25.8308 23.5821 25.8486C23.5554 25.8655 23.5278 25.8807 23.5001 25.8976C23.3709 24.2101 22.9929 22.4627 22.393 20.7822C23.879 20.4478 25.3873 20.4371 26.8117 20.7546C26.8117 20.759 26.8117 20.7635 26.8109 20.7671H26.81ZM21.9758 19.7137C21.7744 19.2365 21.5586 18.77 21.3269 18.3186C22.8191 17.6399 24.1732 16.7274 25.2963 15.6454C26.2198 16.7684 26.7574 18.1429 26.8403 19.5995C25.2634 19.2829 23.6035 19.3221 21.9749 19.7137H21.9758ZM13.3371 18.3392C13.363 18.2348 13.3915 18.1304 13.4227 18.027C13.428 18.0082 13.4343 17.9886 13.4396 17.9699C13.4708 17.8691 13.5038 17.7692 13.5395 17.6702C13.5421 17.6631 13.5439 17.6568 13.5466 17.6497C13.5511 17.6372 13.5555 17.6247 13.56 17.6122C13.5965 17.5141 13.6349 17.4178 13.675 17.3214C13.6812 17.3072 13.6866 17.2938 13.6928 17.2795C13.6937 17.2768 13.6955 17.2742 13.6964 17.2706C13.7383 17.1725 13.7828 17.0761 13.8301 16.9807C13.8372 16.9655 13.8452 16.9504 13.8524 16.9343C13.9005 16.838 13.9504 16.7434 14.003 16.6498C14.011 16.6346 14.0191 16.6204 14.028 16.6061C14.0797 16.5151 14.134 16.425 14.1902 16.3358C14.1964 16.326 14.2027 16.3162 14.2089 16.3064C14.2125 16.3001 14.2169 16.2939 14.2214 16.2877C14.2785 16.1985 14.3382 16.111 14.3988 16.0254C14.4095 16.0103 14.4211 15.9942 14.4318 15.979C14.4942 15.8925 14.5593 15.8069 14.6261 15.723C14.6368 15.7097 14.6484 15.6963 14.6591 15.6829C14.7268 15.5991 14.7964 15.5161 14.8686 15.4349C14.8775 15.4242 14.8873 15.4144 14.8962 15.4037C14.9702 15.3208 15.0469 15.2405 15.1253 15.1611C15.1342 15.1522 15.1422 15.1442 15.1512 15.1352C15.2278 15.0594 15.3054 14.9845 15.3856 14.9122C15.3927 14.906 15.3999 14.8989 15.407 14.8926C15.4114 14.8891 15.415 14.8855 15.4195 14.8819C15.4997 14.8106 15.5817 14.741 15.6646 14.6723C15.678 14.6616 15.6913 14.65 15.7047 14.6393C15.7894 14.5715 15.875 14.5064 15.9632 14.4422C15.9784 14.4315 15.9935 14.4199 16.0096 14.4092C16.0978 14.3459 16.1879 14.2843 16.2797 14.2254C16.2939 14.2165 16.3091 14.2067 16.3234 14.1978C16.4178 14.138 16.5132 14.08 16.6113 14.0247C16.6184 14.0212 16.6255 14.0167 16.6327 14.0132C17.7799 15.0121 18.8309 16.2876 19.7081 17.7442C17.5918 18.489 15.3571 18.7049 13.3309 18.3606C13.3327 18.3525 13.3344 18.3454 13.3362 18.3374L13.3371 18.3392ZM20.3258 13.1435C20.3624 13.1453 20.3989 13.1488 20.4355 13.1506C20.5094 13.1551 20.5825 13.1604 20.6556 13.1667C20.6984 13.1711 20.7412 13.1765 20.784 13.181C20.85 13.1881 20.9159 13.1961 20.9819 13.2059C21.0274 13.2122 21.0719 13.2202 21.1165 13.2273C21.1798 13.238 21.2422 13.2487 21.3046 13.2603C21.35 13.2693 21.3955 13.2782 21.441 13.288C21.5025 13.3014 21.564 13.3147 21.6246 13.3299C21.6701 13.3406 21.7146 13.3522 21.7592 13.3638C21.8198 13.3799 21.8804 13.3968 21.9411 13.4146C21.9847 13.4271 22.0284 13.4405 22.0721 13.4539C22.1336 13.4735 22.1951 13.494 22.2566 13.5154C22.2976 13.5297 22.3386 13.5431 22.3796 13.5583C22.4456 13.5832 22.5116 13.6091 22.5766 13.6359C22.6114 13.6501 22.6462 13.6626 22.68 13.6778C22.7736 13.7179 22.8663 13.7598 22.9582 13.8035C22.9671 13.808 22.9769 13.8125 22.9858 13.8169C23.0785 13.8615 23.1703 13.9088 23.2603 13.9579C23.2933 13.9757 23.3254 13.9944 23.3575 14.0132C23.419 14.0479 23.4805 14.0827 23.542 14.1202C23.5795 14.1425 23.6151 14.1666 23.6517 14.1898C23.7069 14.2245 23.7613 14.2593 23.8157 14.2959C23.854 14.3218 23.8915 14.3485 23.9289 14.3744C23.9806 14.411 24.0323 14.4475 24.0831 14.4859C24.1206 14.5135 24.1571 14.5421 24.1946 14.5706C24.2445 14.6099 24.2944 14.6491 24.3434 14.6901C24.3791 14.7196 24.4147 14.7499 24.4504 14.7802C24.4691 14.7963 24.4878 14.8141 24.5065 14.8302C23.4565 15.8417 22.1826 16.6908 20.7769 17.3197C19.9175 15.8595 18.8906 14.5617 17.763 13.5047C18.4761 13.2586 19.2231 13.1337 19.9933 13.1337C20.1047 13.1337 20.2153 13.1364 20.3258 13.1417V13.1435ZM13.1535 19.4835C13.8417 19.5995 14.5503 19.6575 15.2688 19.6575C16.9251 19.6575 18.6357 19.3524 20.2705 18.7521C20.4863 19.1669 20.6895 19.5942 20.8785 20.033C20.7831 20.0651 20.6886 20.0972 20.5941 20.132C18.1962 21.0195 16.2093 22.5992 14.9212 24.6177C13.7784 23.3609 13.1339 21.7135 13.1339 19.9991C13.1339 19.827 13.141 19.6548 13.1535 19.4835ZM19.6902 26.8556C19.6572 26.8538 19.6243 26.8512 19.5913 26.8494C19.5235 26.8458 19.4567 26.8413 19.3889 26.8351C19.3497 26.8315 19.3114 26.8271 19.2722 26.8226C19.2115 26.8164 19.15 26.8092 19.0894 26.8012C19.0484 26.7958 19.0074 26.7896 18.9664 26.7834C18.9085 26.7744 18.8505 26.7655 18.7926 26.7548C18.7507 26.7477 18.7088 26.7396 18.6678 26.7307C18.6107 26.7191 18.5546 26.7075 18.4984 26.6951C18.4565 26.6861 18.4155 26.6763 18.3745 26.6656C18.3183 26.6522 18.2622 26.6371 18.2069 26.6228C18.1659 26.6121 18.1258 26.6005 18.0857 26.5889C18.0295 26.5729 17.9734 26.555 17.9172 26.5372C17.878 26.5247 17.8397 26.5131 17.8004 26.4997C17.7425 26.4801 17.6846 26.4587 17.6275 26.4382C17.5918 26.4248 17.5553 26.4123 17.5196 26.398C17.4572 26.3739 17.3948 26.3481 17.3324 26.3213C17.303 26.3088 17.2736 26.2972 17.2442 26.2847C17.155 26.2455 17.0668 26.2045 16.9794 26.1617C16.9777 26.1617 16.9759 26.1599 16.9741 26.159C16.8841 26.1153 16.7958 26.0689 16.7076 26.0207C16.6817 26.0065 16.6559 25.9904 16.6291 25.9761C16.5685 25.9422 16.5079 25.9074 16.4482 25.8718C16.4161 25.8521 16.384 25.8316 16.3519 25.8111C16.2993 25.7781 16.2467 25.7451 16.195 25.7103C16.1611 25.688 16.1272 25.6639 16.0943 25.6408C16.0452 25.6069 15.9971 25.573 15.949 25.5373C15.9142 25.5123 15.8803 25.4864 15.8465 25.4606C15.8206 25.441 15.7948 25.4204 15.7689 25.3999C16.9179 23.5054 18.756 22.0221 20.989 21.1952C21.0906 21.1578 21.1941 21.123 21.2975 21.0882C21.9339 22.8454 22.3119 24.6801 22.3975 26.4275C22.2985 26.4649 22.1987 26.4997 22.0988 26.5318C22.0721 26.5407 22.0445 26.5479 22.0177 26.5559C21.9393 26.58 21.8599 26.6041 21.7806 26.6255C21.7414 26.6362 21.7013 26.6451 21.6611 26.6558C21.5934 26.6728 21.5257 26.6888 21.457 26.704C21.4142 26.7138 21.3705 26.7218 21.3269 26.7307C21.2609 26.7441 21.1949 26.7557 21.1281 26.7673C21.0844 26.7744 21.0398 26.7816 20.9953 26.7878C20.9275 26.7976 20.8598 26.8066 20.7911 26.8137C20.7483 26.819 20.7064 26.8235 20.6637 26.828C20.5888 26.8351 20.5139 26.8404 20.439 26.8449C20.4025 26.8476 20.3668 26.8503 20.3303 26.852C20.2188 26.8574 20.1065 26.861 19.9942 26.861C19.8926 26.861 19.7919 26.8583 19.6911 26.8538L19.6902 26.8556Z" fill="#222222"/>
</svg>
