<svg width="40" height="40" viewBox="0 0 40 40" fill="none" xmlns="http://www.w3.org/2000/svg">
<rect width="40" height="40" rx="20" fill="#222222" fill-opacity="0.32"/>
<path d="M26.58 19.5025C26.58 19.2576 26.482 19.0323 26.2959 18.856L18.5379 11.2547C18.3616 11.0882 18.1461 11 17.8914 11C17.3918 11 17 11.382 17 11.8914C17 12.1363 17.098 12.3616 17.2547 12.5281L24.3858 19.5025L17.2547 26.4769C17.098 26.6434 17 26.8589 17 27.1136C17 27.623 17.3918 28.005 17.8914 28.005C18.1461 28.005 18.3616 27.9169 18.5379 27.7405L26.2959 20.149C26.482 19.9629 26.58 19.7474 26.58 19.5025Z" fill="#222222"/>
</svg>
