<svg width="40" height="40" viewBox="0 0 40 40" fill="none" xmlns="http://www.w3.org/2000/svg">
<rect width="40" height="40" rx="20" fill="#222222" fill-opacity="0.32"/>
<path d="M13 20.5C13 20.7448 13.0881 20.9602 13.2742 21.1463L21.0398 28.7356C21.2062 28.9119 21.4216 29 21.6763 29C22.1855 29 22.5772 28.6181 22.5772 28.1089C22.5772 27.8543 22.4695 27.6388 22.3128 27.4723L15.1838 20.5L22.3128 13.5276C22.4695 13.3612 22.5772 13.1359 22.5772 12.8911C22.5772 12.3819 22.1855 12 21.6763 12C21.4216 12 21.2062 12.0881 21.0398 12.2546L13.2742 19.8537C13.0881 20.03 13 20.2552 13 20.5Z" fill="#222222"/>
</svg>
