<svg width="40" height="40" viewBox="0 0 40 40" fill="none" xmlns="http://www.w3.org/2000/svg">
<rect width="40" height="40" rx="20" fill="#222222" fill-opacity="0.32"/>
<g clip-path="url(#clip0_5_256)">
<path d="M28 19.8851C28 22.0046 27.6448 23.7239 27.2065 23.7239C26.7682 23.7239 26.4131 22.0051 26.4131 19.8851C26.4131 17.7651 26.7683 16.0463 27.2065 16.0463C27.6446 16.0463 28 17.7649 28 19.8851Z" fill="#222222"/>
<path d="M25.9752 19.8851C25.9752 22.2514 24.965 24.1703 23.7189 24.1703C22.4728 24.1703 21.4626 22.2514 21.4626 19.8851C21.4626 17.5189 22.4727 15.6 23.7188 15.6C24.9649 15.6 25.9751 17.5183 25.9751 19.8851" fill="#222222"/>
<path d="M21.025 19.8852C21.025 22.399 19.0046 24.4368 16.5126 24.4368C14.0205 24.4368 12 22.3985 12 19.8852C12 17.3718 14.0203 15.3334 16.5126 15.3334C19.0048 15.3334 21.025 17.3714 21.025 19.8852Z" fill="#222222"/>
</g>
<defs>
<clipPath id="clip0_5_256">
<rect width="16" height="16" fill="white" transform="translate(12 12)"/>
</clipPath>
</defs>
</svg>
