<svg width="40" height="40" viewBox="0 0 40 40" fill="none" xmlns="http://www.w3.org/2000/svg">
<rect width="40" height="40" rx="20" fill="#222222" fill-opacity="0.32"/>
<g clip-path="url(#clip0_5_247)">
<path d="M26.8156 12H13.1812C12.5281 12 12 12.5156 12 13.1531V26.8438C12 27.4813 12.5281 28 13.1812 28H26.8156C27.4688 28 28 27.4813 28 26.8469V13.1531C28 12.5156 27.4688 12 26.8156 12ZM16.7469 25.6344H14.3719V17.9969H16.7469V25.6344ZM15.5594 16.9563C14.7969 16.9563 14.1813 16.3406 14.1813 15.5812C14.1813 14.8219 14.7969 14.2062 15.5594 14.2062C16.3188 14.2062 16.9344 14.8219 16.9344 15.5812C16.9344 16.3375 16.3188 16.9563 15.5594 16.9563ZM25.6344 25.6344H23.2625V21.9219C23.2625 21.0375 23.2469 19.8969 22.0281 19.8969C20.7937 19.8969 20.6062 20.8625 20.6062 21.8594V25.6344H18.2375V17.9969H20.5125V19.0406H20.5437C20.8594 18.4406 21.6344 17.8063 22.7875 17.8063C25.1906 17.8063 25.6344 19.3875 25.6344 21.4438V25.6344V25.6344Z" fill="#222222"/>
</g>
<defs>
<clipPath id="clip0_5_247">
<rect width="16" height="16" fill="white" transform="translate(12 12)"/>
</clipPath>
</defs>
</svg>
